<?xml version="1.0" encoding="UTF-8"?>
<svg width="46px" height="46px" viewBox="0 0 46 46" version="1.1" xmlns="http://www.w3.org/2000/svg" xmlns:xlink="http://www.w3.org/1999/xlink">
    <!-- Generator: Sketch 43.2 (39069) - http://www.bohemiancoding.com/sketch -->
    <title>logo</title>
    <desc>Created with Sketch.</desc>
    <defs></defs>
    <g id="Page-1" stroke="none" stroke-width="1" fill="none" fill-rule="evenodd">
        <g id="HOME" transform="translate(-184.000000, -493.000000)" fill-rule="nonzero" fill="#FFFFFF">
            <g id="logo" transform="translate(184.000000, 493.000000)">
                <path d="M1.32437209,22.9518605 L1.32437209,23.6873256 L5.31513953,23.6873256 C5.30497674,23.4428837 5.2964186,23.1984419 5.2964186,22.9518605 L1.32437209,22.9518605 Z" id="Shape"></path>
                <g id="Group">
                    <path d="M22.9518605,40.6067674 C32.4556744,40.6067674 40.2029302,33.0959302 40.5885814,23.6867907 L5.31513953,23.6867907 C5.7007907,33.0959302 13.4475116,40.6067674 22.9518605,40.6067674 Z" id="Shape"></path>
                    <path d="M44.578814,22.9518605 L40.6067674,22.9518605 C40.6067674,23.1984419 40.5976744,23.4428837 40.5880465,23.6873256 L44.578814,23.6873256 L44.578814,22.9518605 Z" id="Shape"></path>
                    <path d="M22.9518605,5.2964186 C13.2009302,5.2964186 5.29695349,13.2009302 5.29695349,22.9513256 L5.29695349,22.9513256 L12.5793953,22.9513256 C12.5793953,21.7328605 13.5673256,20.7443953 14.7863256,20.7443953 C16.0047907,20.7443953 16.9932558,21.7328605 16.9932558,22.9513256 L28.9104651,22.9513256 L28.9104651,22.9513256 C28.9104651,21.7328605 29.8978605,20.7443953 31.1168605,20.7443953 C32.3353256,20.7443953 33.3243256,21.7328605 33.3243256,22.9513256 L33.3243256,22.9513256 L40.6067674,22.9513256 L40.6067674,22.9513256 C40.6067674,13.2009302 32.7017209,5.2964186 22.9518605,5.2964186 Z" id="Shape"></path>
                    <g id="Shape">
                        <path d="M45.9037209,11.0335814 L44.1380698,11.0335814 L44.1380698,2.6482093 C44.1380698,2.16146512 43.7422558,1.76565116 43.2555116,1.76565116 L34.8696047,1.76565116 L34.8696047,0 L43.2555116,0 C44.7152093,0 45.9037209,1.18797674 45.9037209,2.6482093 L45.9037209,11.0335814 Z"></path>
                        <path d="M43.2555116,45.9037209 L34.8696047,45.9037209 L34.8696047,44.1380698 L43.2555116,44.1380698 C43.7422558,44.1380698 44.1380698,43.7422558 44.1380698,43.2555116 L44.1380698,34.8696047 L45.9037209,34.8696047 L45.9037209,43.2555116 C45.9037209,44.7157442 44.7152093,45.9037209 43.2555116,45.9037209 Z"></path>
                        <path d="M11.0335814,45.9037209 L2.6482093,45.9037209 C1.18797674,45.9037209 0,44.7157442 0,43.2555116 L0,34.8701395 L1.76565116,34.8701395 L1.76565116,43.2555116 C1.76565116,43.7422558 2.16146512,44.1380698 2.6482093,44.1380698 L11.0335814,44.1380698 L11.0335814,45.9037209 Z"></path>
                        <path d="M1.76565116,11.0335814 L0,11.0335814 L0,2.6482093 C0,1.18797674 1.18797674,0 2.6482093,0 L11.0335814,0 L11.0335814,1.76565116 L2.6482093,1.76565116 C2.16146512,1.76565116 1.76565116,2.16146512 1.76565116,2.6482093 L1.76565116,11.0335814 L1.76565116,11.0335814 Z"></path>
                    </g>
                </g>
            </g>
        </g>
    </g>
</svg>